<?xml version="1.0" encoding="UTF-8"?>
<svg id="Layer_1" data-name="Layer 1" xmlns="http://www.w3.org/2000/svg" version="1.1" viewBox="0 0 566.93 566.93">
  <defs>
    <style>
      .cls-1 {
        fill: #2d62ae;
        stroke-width: 0px;
      }
    </style>
  </defs>
  <polygon class="cls-1" points="65.58 319.18 57.14 319.18 57.14 231.56 100.1 274.53 143.52 231.11 143.52 285.9 135.08 285.9 135.08 251.48 100.1 286.46 65.58 251.93 65.58 319.18"/>
  <rect class="cls-1" x="178.55" y="230.55" width="8.44" height="89.37"/>
  <polygon class="cls-1" points="432.61 320.01 466.32 250.58 497.4 312.52 465.36 312.52 465.36 320.01 510.52 320.01 466.2 231.68 423.3 320.01 432.61 320.01"/>
  <path class="cls-1" d="M228.64,240.37h28.9c10.96,0,19.89,8.92,19.89,19.89s-8.92,19.89-19.89,19.89h-24.38l55.58,55.58h11.93l-47.14-47.14h4.01c15.62,0,28.32-12.71,28.32-28.32s-12.71-28.32-28.32-28.32h-37.33v88.34h8.44v-79.9Z"/>
  <polygon class="cls-1" points="404.06 230.99 390.78 230.99 330.17 280.7 330.17 236.61 321.74 236.61 321.74 320.1 330.17 320.1 330.17 291.67 340.26 283.29 386.58 324.01 399.36 324.01 346.83 277.83 404.06 230.99"/>
</svg>