<?xml version="1.0" encoding="UTF-8"?>
<!-- Generator: visioncortex VTracer 0.6.3 -->
<svg version="1.1" xmlns="http://www.w3.org/2000/svg" width="1080" height="260">
<path d="M0 0 C16.49 2.5 31.48 15.52 41.31 28.19 C44.19 32.39 46.76 36.78 49.31 41.19 C50.31 42.86 51.31 44.52 52.31 46.19 C52.93 45.29 53.55 44.4 54.18 43.48 C59.45 35.93 64.85 28.77 71.31 22.19 C71.92 21.56 72.53 20.94 73.16 20.3 C85.11 9.01 99.97 3.28 116.31 3.19 C118.29 3.68 118.29 3.68 120.31 4.19 C120.31 32.57 120.31 60.95 120.31 90.19 C111.4 90.19 102.49 90.19 93.31 90.19 C93.22 73.49 93.12 56.85 94.31 40.19 C79.22 49.17 70.95 59.03 66.31 76.19 C65.22 80.84 64.25 85.5 63.31 90.19 C55.72 90.19 48.13 90.19 40.31 90.19 C39.32 85.73 39.32 85.73 38.31 81.19 C35.35 68.79 30.19 54.2 20.36 45.45 C19.74 45.07 19.13 44.7 18.5 44.31 C17.9 43.92 17.29 43.53 16.67 43.13 C13.26 41.76 9.97 41.55 6.31 41.19 C-9.82 64.45 -15.53 90.13 -14.69 118.19 C-14.7 119.26 -14.72 120.34 -14.74 121.45 C-14.58 131.38 -10.57 138.79 -5.69 147.19 C-5.33 147.81 -4.97 148.43 -4.61 149.07 C0.67 158.12 6.91 165.79 14.31 173.19 C15.13 174 15.94 174.81 16.78 175.65 C38.15 195.91 66.63 203.84 95.42 203.47 C118.05 202.73 141.16 194.06 158.31 179.19 C158.31 182.19 158.31 182.19 156.69 183.91 C145.31 193.01 132.07 200.38 118.31 205.19 C117.63 205.43 116.95 205.67 116.25 205.92 C88.14 215.46 53.36 212.68 26.82 199.93 C25.66 199.35 24.5 198.78 23.31 198.19 C22.33 197.72 21.35 197.24 20.34 196.76 C-8.25 182.2 -27.66 155.1 -37.69 125.21 C-38.02 124.15 -38.35 123.09 -38.69 122 C-39.02 120.95 -39.35 119.91 -39.69 118.83 C-42.42 108.89 -43.09 99.41 -43.06 89.12 C-43.06 88.39 -43.06 87.66 -43.06 86.9 C-43.02 75.82 -42.34 65.74 -38.69 55.19 C-38.47 54.53 -38.26 53.86 -38.04 53.18 C-31.75 33.84 -20.62 17.93 -6.69 3.19 C-6.18 2.6 -5.68 2.02 -5.16 1.42 C-3.69 0.19 -3.69 0.19 0 0 Z " fill="#FFFFFF" transform="translate(766.6875,41.8125)"/>
<path d="M0 0 C17.25 14.59 33.72 33.63 39.33 56.08 C39.99 58.51 40.92 60.69 41.93 63 C49.47 81.89 49.58 105.87 43.93 125.31 C43.44 127.11 43.44 127.11 42.94 128.94 C36.3 150.93 23.01 169.24 6.93 185.31 C-5.14 186.89 -17.52 179.31 -26.73 172.28 C-36.47 163.97 -43.36 153.69 -49.07 142.31 C-49.54 143.05 -50.01 143.79 -50.5 144.55 C-61.97 162.15 -75.75 178.99 -97.07 184.31 C-102.07 185.31 -102.07 185.31 -116.07 185.31 C-116.07 156.93 -116.07 128.55 -116.07 99.31 C-108.48 99.31 -100.89 99.31 -93.07 99.31 C-93.07 115.48 -93.07 131.65 -93.07 148.31 C-77.57 138.45 -69.35 127.75 -65.13 109.98 C-64.38 106.43 -63.73 102.87 -63.07 99.31 C-54.16 99.31 -45.25 99.31 -36.07 99.31 C-33.32 109.69 -33.32 109.69 -32.48 112.89 C-29.18 125.13 -24.97 138.62 -13.44 145.5 C-9.91 147.36 -7.04 147.98 -3.07 147.31 C-1.17 145.18 0.1 143.43 1.5 141 C1.88 140.36 2.27 139.72 2.67 139.05 C7.42 131.03 10.9 122.9 13.62 114 C13.93 113.02 13.93 113.02 14.24 112.03 C17.74 99.94 18.44 87.39 18.5 74.87 C18.5 74.15 18.5 73.42 18.51 72.67 C18.5 61.28 17.38 52.95 10.93 43.31 C10 41.54 9.06 39.76 8.14 37.98 C3.81 29.86 -1.86 23.05 -8.07 16.31 C-8.88 15.41 -9.7 14.52 -10.54 13.59 C-27.86 -4.63 -54.26 -17.25 -79.52 -17.99 C-81.79 -18.01 -84.05 -18.01 -86.32 -18 C-87.51 -18 -88.7 -17.99 -89.92 -17.99 C-113.58 -17.67 -135.48 -9.29 -154.07 5.31 C-154.07 4.32 -154.07 3.33 -154.07 2.31 C-113.89 -36.9 -41.82 -34.03 0 0 Z " fill="#FFFFFF" transform="translate(923.06640625,33.68896484375)"/>
<path d="M0 0 C0 11.88 0 23.76 0 36 C47.85 36 95.7 36 145 36 C145 27.42 145 18.84 145 10 C148.26 8.35 151.52 6.7 154.88 5 C155.9 4.48 156.93 3.96 157.98 3.42 C158.79 3.01 159.6 2.61 160.43 2.19 C161.26 1.77 162.08 1.35 162.94 0.92 C165 0 165 0 167 0 C167 11.88 167 23.76 167 36 C168.98 36 170.96 36 173 36 C173.09 35.18 173.17 34.36 173.26 33.52 C173.47 31.9 173.47 31.9 173.69 30.25 C173.82 29.18 173.94 28.12 174.07 27.02 C175.41 22.67 178.08 21.09 181.98 18.88 C184.36 17.63 186.76 16.43 189.17 15.23 C190.04 14.8 190.92 14.36 191.82 13.91 C193.67 12.99 195.51 12.07 197.36 11.15 C200.19 9.75 203.02 8.33 205.85 6.91 C207.64 6.02 209.44 5.13 211.23 4.23 C212.08 3.81 212.93 3.38 213.8 2.95 C214.59 2.56 215.37 2.17 216.18 1.77 C216.87 1.43 217.56 1.09 218.27 0.73 C220 0 220 0 222 0 C222.08 6.28 222.13 12.56 222.16 18.84 C222.18 20.98 222.2 23.11 222.23 25.25 C222.26 28.32 222.28 31.4 222.29 34.47 C222.31 35.42 222.32 36.37 222.34 37.35 C222.34 43.02 221.74 47 219 52 C209.44 60.82 194.34 59.38 182.25 59.19 C180.57 59.17 178.89 59.16 177.21 59.15 C173.14 59.11 169.07 59.06 165 59 C164.67 57.68 164.34 56.36 164 55 C163.34 55.47 162.68 55.95 162 56.44 C154.37 60.41 144.6 59.14 136.23 59.11 C134.74 59.11 133.25 59.11 131.76 59.11 C127.74 59.11 123.72 59.11 119.7 59.1 C115.49 59.1 111.28 59.09 107.07 59.09 C99.1 59.09 91.14 59.08 83.17 59.07 C74.1 59.06 65.03 59.06 55.96 59.05 C37.3 59.04 18.65 59.02 0 59 C0.02 59.9 0.04 60.79 0.06 61.71 C0.09 63.47 0.09 63.47 0.11 65.27 C0.13 66.43 0.15 67.6 0.17 68.8 C-0.06 73.22 -0.95 74.86 -4 78 C-7.69 80.53 -11.52 80.26 -15.83 80.2 C-16.95 80.19 -16.95 80.19 -18.1 80.19 C-20.48 80.18 -22.87 80.15 -25.25 80.12 C-26.87 80.11 -28.49 80.11 -30.11 80.1 C-34.07 80.08 -38.04 80.04 -42 80 C-42 72.74 -42 65.48 -42 58 C-35.4 58 -28.8 58 -22 58 C-22.04 56.6 -22.08 55.2 -22.13 53.76 C-22.27 48.58 -22.36 43.39 -22.44 38.19 C-22.48 35.95 -22.53 33.7 -22.6 31.46 C-22.7 28.23 -22.75 25 -22.78 21.77 C-22.82 20.77 -22.86 19.77 -22.91 18.73 C-22.91 15.94 -22.83 13.67 -22 11 C-19.62 8.62 -17.06 7.33 -14 6 C-12.9 5.41 -11.8 4.81 -10.66 4.2 C-9.66 3.7 -8.66 3.2 -7.62 2.69 C-6.61 2.18 -5.59 1.66 -4.54 1.14 C-2 0 -2 0 0 0 Z M195 31 C192.59 32.96 192.59 32.96 192.88 36.62 C192.92 37.74 192.96 38.85 193 40 C196.3 39.67 199.6 39.34 203 39 C203 35.04 203 31.08 203 27 C199.7 27 197.62 29.14 195 31 Z " fill="#FFFFFF" transform="translate(472,99)"/>
<path d="M0 0 C0 11.88 0 23.76 0 36 C36.3 36 72.6 36 110 36 C110 27.75 110 19.5 110 11 C114.84 7.97 119.32 5.2 124.38 2.69 C125.39 2.18 126.41 1.66 127.46 1.14 C130 0 130 0 132 0 C132.1 7.01 132.17 14.02 132.22 21.03 C132.24 23.42 132.27 25.8 132.3 28.19 C132.35 31.62 132.37 35.05 132.39 38.48 C132.41 39.54 132.43 40.6 132.45 41.7 C132.46 47.79 132.09 51.37 128 56 C121.55 60.67 110.93 59.13 103.45 59.11 C102.08 59.11 100.7 59.11 99.33 59.11 C95.63 59.11 91.93 59.11 88.22 59.1 C84.35 59.1 80.47 59.09 76.59 59.09 C69.26 59.09 61.92 59.08 54.59 59.07 C46.23 59.06 37.88 59.06 29.53 59.05 C12.35 59.04 -4.82 59.02 -22 59 C-22 42.83 -22 26.66 -22 10 C-2 0 -2 0 0 0 Z " fill="#FFFFFF" transform="translate(117,97)"/>
<path d="M0 0 C0 17.82 0 35.64 0 54 C10.89 53.67 21.78 53.34 33 53 C27.86 49.81 27.86 49.81 22.62 46.56 C21.01 45.56 21.01 45.56 19.36 44.53 C18.51 44.01 17.66 43.48 16.79 42.94 C15.92 42.4 15.05 41.86 14.15 41.31 C12.06 39.99 12.06 39.99 10 39 C10 32.07 10 25.14 10 18 C19.64 13.88 29.39 10.24 39.25 6.69 C40.79 6.13 42.32 5.58 43.86 5.02 C47.57 3.68 51.28 2.34 55 1 C58.24 4.07 60.75 6.86 62.81 10.81 C63.23 11.6 63.65 12.39 64.08 13.21 C64.54 14.09 64.54 14.09 65 15 C61.25 16.67 57.49 18.35 53.74 20.02 C52.46 20.59 51.19 21.15 49.91 21.72 C48.07 22.54 46.23 23.36 44.39 24.18 C43.29 24.67 42.18 25.16 41.05 25.67 C38.38 26.83 35.71 27.94 33 29 C34.96 30.21 36.92 31.42 38.88 32.62 C39.46 32.99 40.05 33.36 40.66 33.73 C43.37 35.41 46.07 37.04 48.84 38.59 C54.56 41.78 59.76 45.15 63 51 C64.15 56.05 63.39 59.94 61.62 64.75 C57.7 70.69 49.73 74.39 43 76 C35.91 77.14 28.92 77.13 21.75 77.1 C20.64 77.1 19.53 77.1 18.38 77.09 C14.25 77.09 10.13 77.08 6 77.06 C-3.24 77.04 -12.48 77.02 -22 77 C-22 55.22 -22 33.44 -22 11 C-1.1 0 -1.1 0 0 0 Z " fill="#FFFFFF" transform="translate(353,81)"/>
<path d="M0 0 C0.02 7.91 0.04 15.82 0.05 23.73 C0.06 27.41 0.06 31.08 0.08 34.76 C0.09 38.31 0.09 41.86 0.09 45.42 C0.1 47.42 0.11 49.41 0.11 51.41 C0.11 72.15 0.11 72.15 -5 78 C-8.67 80.55 -12.53 80.26 -16.83 80.2 C-17.95 80.19 -17.95 80.19 -19.1 80.19 C-21.48 80.18 -23.87 80.15 -26.25 80.12 C-27.87 80.11 -29.49 80.11 -31.11 80.1 C-35.07 80.08 -39.04 80.04 -43 80 C-43 72.74 -43 65.48 -43 58 C-41.02 57.5 -41.02 57.5 -39 57 C-39.48 56.62 -39.96 56.25 -40.46 55.86 C-41.41 55.1 -41.41 55.1 -42.38 54.31 C-43 53.81 -43.63 53.31 -44.27 52.8 C-48.84 48.04 -48.92 41.27 -49 35 C-48.32 25.23 -48.32 25.23 -45.01 22.15 C-41.15 19.39 -37.08 17.34 -32.83 15.23 C-31.96 14.8 -31.08 14.36 -30.18 13.91 C-28.33 12.99 -26.49 12.07 -24.64 11.15 C-21.81 9.75 -18.98 8.33 -16.15 6.91 C-14.36 6.02 -12.56 5.13 -10.77 4.23 C-9.5 3.6 -9.5 3.6 -8.2 2.95 C-7.41 2.56 -6.63 2.17 -5.82 1.77 C-5.13 1.43 -4.44 1.09 -3.73 0.73 C-2 0 -2 0 0 0 Z M-27 31 C-29.41 32.96 -29.41 32.96 -29.12 36.62 C-29.08 37.74 -29.04 38.85 -29 40 C-25.7 39.67 -22.4 39.34 -19 39 C-19 35.04 -19 31.08 -19 27 C-22.3 27 -24.38 29.14 -27 31 Z " fill="#FFFFFF" transform="translate(314,99)"/>
<path d="M0 0 C2.53 1.78 4.96 3.61 7.31 5.62 C7.77 5.18 8.23 4.74 8.7 4.28 C9.32 3.71 9.93 3.15 10.56 2.56 C11.17 1.99 11.77 1.43 12.39 0.84 C14.31 -0.38 14.31 -0.38 16.31 -0.25 C18.63 0.76 20.19 1.99 22.06 3.69 C22.98 4.51 22.98 4.51 23.92 5.35 C24.38 5.77 24.84 6.19 25.31 6.62 C20.69 12.38 20.69 12.38 17.31 14.62 C13.46 14.37 11.15 12.07 8.31 9.62 C4.68 10.87 4.68 10.87 1.81 13.31 C0.31 14.62 0.31 14.62 -2 14.62 C-5.73 13.24 -7.83 11.41 -10.69 8.62 C-10.69 5.62 -10.69 5.62 -9.11 3.95 C-3.4 -0.47 -3.4 -0.47 0 0 Z " fill="#FFFFFF" transform="translate(609.6875,164.375)"/>
<path d="M0 0 C2.73 2 5.02 4.2 7.31 6.69 C5.94 10.8 3.84 12.25 0.31 14.69 C-3.27 14.87 -5.25 13.42 -8 11.31 C-9.33 10.01 -9.33 10.01 -10.69 8.69 C-10.69 5.69 -10.69 5.69 -9.11 4.01 C-3.42 -0.4 -3.42 -0.4 0 0 Z " fill="#FFFFFF" transform="translate(175.6875,163.3125)"/>
</svg>
