<?xml version="1.0" encoding="UTF-8"?>
<!DOCTYPE svg PUBLIC "-//W3C//DTD SVG 1.1//EN" "http://www.w3.org/Graphics/SVG/1.1/DTD/svg11.dtd">
<svg xmlns="http://www.w3.org/2000/svg" version="1.1" width="2363px" height="861px" style="shape-rendering:geometricPrecision; text-rendering:geometricPrecision; image-rendering:optimizeQuality; fill-rule:evenodd; clip-rule:evenodd" xmlns:xlink="http://www.w3.org/1999/xlink">
<g><path style="opacity:0.251" fill="#c8d6ea" d="M 742.5,240.5 C 754.833,240.5 767.167,240.5 779.5,240.5C 779.5,365.167 779.5,489.833 779.5,614.5C 767.167,614.5 754.833,614.5 742.5,614.5C 742.5,489.833 742.5,365.167 742.5,240.5 Z"/></g>
<g><path style="opacity:1" fill="#2c63af" d="M 743.5,241.5 C 755.167,241.5 766.833,241.5 778.5,241.5C 778.5,365.5 778.5,489.5 778.5,613.5C 766.833,613.5 755.167,613.5 743.5,613.5C 743.5,489.5 743.5,365.5 743.5,241.5 Z"/></g>
<g><path style="opacity:0.753" fill="#638cc4" d="M 1681.5,244.5 C 1662.96,243.187 1644.29,243.187 1625.5,244.5C 1625.61,243.883 1625.94,243.383 1626.5,243C 1645.5,242.333 1664.5,242.333 1683.5,243C 1682.96,243.717 1682.29,244.217 1681.5,244.5 Z"/></g>
<g><path style="opacity:1" fill="#3165b0" d="M 1681.5,244.5 C 1603.31,309.514 1524.65,374.014 1445.5,438C 1518.34,502.01 1591.01,566.176 1663.5,630.5C 1645.51,631.666 1627.51,631.833 1609.5,631C 1602.3,624.634 1595.3,618.134 1588.5,611.5C 1588.03,610.094 1587.03,609.427 1585.5,609.5C 1566.84,593.509 1548.51,577.176 1530.5,560.5C 1530.03,559.094 1529.03,558.427 1527.5,558.5C 1508.84,542.509 1490.51,526.176 1472.5,509.5C 1472.03,508.094 1471.03,507.427 1469.5,507.5C 1451.87,492.375 1434.37,477.042 1417,461.5C 1403.29,473.377 1389.46,485.044 1375.5,496.5C 1374.5,535.33 1374.17,574.33 1374.5,613.5C 1363.17,613.5 1351.83,613.5 1340.5,613.5C 1340.5,497.833 1340.5,382.167 1340.5,266.5C 1351.83,266.5 1363.17,266.5 1374.5,266.5C 1374.17,327.504 1374.5,388.504 1375.5,449.5C 1376.11,449.376 1376.44,449.043 1376.5,448.5C 1390.52,436.485 1404.85,424.818 1419.5,413.5C 1421.75,412.92 1423.42,411.587 1424.5,409.5C 1468.85,372.485 1513.52,335.819 1558.5,299.5C 1560.75,298.92 1562.42,297.587 1563.5,295.5C 1583.56,277.774 1604.23,260.774 1625.5,244.5C 1644.29,243.187 1662.96,243.187 1681.5,244.5 Z"/></g>
<g><path style="opacity:1" fill="#2f64af" d="M 417.5,422.5 C 418.239,422.631 418.906,422.464 419.5,422C 478.701,362.632 538.035,303.465 597.5,244.5C 597.5,320.167 597.5,395.833 597.5,471.5C 585.833,471.5 574.167,471.5 562.5,471.5C 562.667,423.832 562.5,376.166 562,328.5C 561.283,329.044 560.783,329.711 560.5,330.5C 512.854,378.812 464.854,426.812 416.5,474.5C 368.812,427.479 321.479,380.146 274.5,332.5C 274.217,331.711 273.717,331.044 273,330.5C 272.5,423.833 272.333,517.166 272.5,610.5C 260.833,610.5 249.167,610.5 237.5,610.5C 237.333,488.5 237.5,366.5 238,244.5C 297.417,304.417 357.25,363.751 417.5,422.5 Z"/></g>
<g><path style="opacity:1" fill="#3265b0" d="M 2125.5,611.5 C 2063.51,613.496 2001.18,614.163 1938.5,613.5C 1938.5,603.167 1938.5,592.833 1938.5,582.5C 1982.51,582.833 2026.51,582.5 2070.5,581.5C 2066.88,574.6 2063.55,567.6 2060.5,560.5C 2060.71,558.821 2060.05,557.821 2058.5,557.5C 2020.15,480.807 1981.82,404.14 1943.5,327.5C 1942.83,324.833 1942.17,324.833 1941.5,327.5C 1895.68,423.148 1849.34,518.481 1802.5,613.5C 1789.32,613.829 1776.32,613.495 1763.5,612.5C 1822.46,489.913 1881.96,367.579 1942,245.5C 2003.96,367.088 2065.13,489.088 2125.5,611.5 Z"/></g>
<g><path style="opacity:0.502" fill="#7fa0ce" d="M 1084.5,247.5 C 1028.83,247.5 973.167,247.5 917.5,247.5C 917.5,369.833 917.5,492.167 917.5,614.5C 928.833,614.5 940.167,614.5 951.5,614.5C 951.167,503.665 951.501,392.999 952.5,282.5C 952.5,393.5 952.5,504.5 952.5,615.5C 940.5,615.5 928.5,615.5 916.5,615.5C 916.5,492.5 916.5,369.5 916.5,246.5C 972.669,246.168 1028.67,246.501 1084.5,247.5 Z"/></g>
<g><path style="opacity:1" fill="#2f64af" d="M 1084.5,247.5 C 1115.02,250.092 1140.35,262.759 1160.5,285.5C 1160.43,287.027 1161.09,288.027 1162.5,288.5C 1177.82,305.491 1186.99,325.491 1190,348.5C 1194.89,399.541 1176.06,439.041 1133.5,467C 1118.03,476.101 1101.36,481.268 1083.5,482.5C 1074.48,482.168 1065.48,482.502 1056.5,483.5C 1056.62,484.107 1056.96,484.44 1057.5,484.5C 1122.63,549.132 1187.63,613.965 1252.5,679C 1235.5,679.667 1218.5,679.667 1201.5,679C 1124.97,602.632 1048.63,526.132 972.5,449.5C 1006.5,448.833 1040.5,448.167 1074.5,447.5C 1118.14,443.029 1144.64,419.362 1154,376.5C 1157.06,336.117 1140.56,306.951 1104.5,289C 1098.95,286.927 1093.28,285.26 1087.5,284C 1042.53,282.537 997.53,282.037 952.5,282.5C 951.501,392.999 951.167,503.665 951.5,614.5C 940.167,614.5 928.833,614.5 917.5,614.5C 917.5,492.167 917.5,369.833 917.5,247.5C 973.167,247.5 1028.83,247.5 1084.5,247.5 Z"/></g>
<g><path style="opacity:0.502" fill="#99b4d8" d="M 1375.5,266.5 C 1375.17,266.5 1374.83,266.5 1374.5,266.5C 1363.17,266.5 1351.83,266.5 1340.5,266.5C 1340.5,382.167 1340.5,497.833 1340.5,613.5C 1340.5,613.833 1340.5,614.167 1340.5,614.5C 1339.5,498.335 1339.17,382.001 1339.5,265.5C 1351.68,265.172 1363.68,265.505 1375.5,266.5 Z"/></g>
<g><path style="opacity:0.753" fill="#5f8ac3" d="M 1374.5,266.5 C 1374.83,266.5 1375.17,266.5 1375.5,266.5C 1375.17,327.336 1375.5,388.002 1376.5,448.5C 1376.44,449.043 1376.11,449.376 1375.5,449.5C 1374.5,388.504 1374.17,327.504 1374.5,266.5 Z"/></g>
<g><path style="opacity:0.816" fill="#8ca5d2" d="M 597.5,244.5 C 538.035,303.465 478.701,362.632 419.5,422C 418.906,422.464 418.239,422.631 417.5,422.5C 477.132,362.368 536.965,302.368 597,242.5C 597.464,243.094 597.631,243.761 597.5,244.5 Z"/></g>
<g><path style="opacity:0.816" fill="#9bb0d8" d="M 1160.5,285.5 C 1161.91,285.973 1162.57,286.973 1162.5,288.5C 1161.09,288.027 1160.43,287.027 1160.5,285.5 Z"/></g>
<g><path style="opacity:0.941" fill="#7895ca" d="M 1563.5,295.5 C 1562.42,297.587 1560.75,298.92 1558.5,299.5C 1559.58,297.413 1561.25,296.08 1563.5,295.5 Z"/></g>
<g><path style="opacity:0.063" fill="#d3ddee" d="M 1943.5,327.5 C 1942.83,327.5 1942.17,327.5 1941.5,327.5C 1942.17,324.833 1942.83,324.833 1943.5,327.5 Z"/></g>
<g><path style="opacity:0.251" fill="#c9d7ea" d="M 597.5,471.5 C 585.678,472.495 573.678,472.828 561.5,472.5C 561.832,424.997 561.499,377.664 560.5,330.5C 560.783,329.711 561.283,329.044 562,328.5C 562.5,376.166 562.667,423.832 562.5,471.5C 574.167,471.5 585.833,471.5 597.5,471.5 Z"/></g>
<g><path style="opacity:0.251" fill="#c9d7ea" d="M 274.5,332.5 C 273.833,425.167 273.167,517.833 272.5,610.5C 272.333,517.166 272.5,423.833 273,330.5C 273.717,331.044 274.217,331.711 274.5,332.5 Z"/></g>
<g><path style="opacity:0.941" fill="#7895ca" d="M 1424.5,409.5 C 1423.42,411.587 1421.75,412.92 1419.5,413.5C 1420.58,411.413 1422.25,410.08 1424.5,409.5 Z"/></g>
<g><path style="opacity:0.753" fill="#608ac3" d="M 1074.5,447.5 C 1040.5,448.167 1006.5,448.833 972.5,449.5C 971.711,449.217 971.044,448.717 970.5,448C 1005.17,447.5 1039.83,447.333 1074.5,447.5 Z"/></g>
<g><path style="opacity:0.502" fill="#9cb6d9" d="M 1083.5,482.5 C 1074.83,483.167 1066.17,483.833 1057.5,484.5C 1056.96,484.44 1056.62,484.107 1056.5,483.5C 1065.48,482.502 1074.48,482.168 1083.5,482.5 Z"/></g>
<g><path style="opacity:0.753" fill="#5f8ac3" d="M 1375.5,496.5 C 1375.5,535.833 1375.5,575.167 1375.5,614.5C 1363.83,614.5 1352.17,614.5 1340.5,614.5C 1340.5,614.167 1340.5,613.833 1340.5,613.5C 1351.83,613.5 1363.17,613.5 1374.5,613.5C 1374.17,574.33 1374.5,535.33 1375.5,496.5 Z"/></g>
<g><path style="opacity:0.816" fill="#9bb0d8" d="M 1469.5,507.5 C 1471.03,507.427 1472.03,508.094 1472.5,509.5C 1470.97,509.573 1469.97,508.906 1469.5,507.5 Z"/></g>
<g><path style="opacity:0.941" fill="#97abd6" d="M 2058.5,557.5 C 2060.05,557.821 2060.71,558.821 2060.5,560.5C 2059.6,559.71 2058.93,558.71 2058.5,557.5 Z"/></g>
<g><path style="opacity:0.816" fill="#9bb0d8" d="M 1527.5,558.5 C 1529.03,558.427 1530.03,559.094 1530.5,560.5C 1528.97,560.573 1527.97,559.906 1527.5,558.5 Z"/></g>
<g><path style="opacity:0.816" fill="#9bb0d8" d="M 1585.5,609.5 C 1587.03,609.427 1588.03,610.094 1588.5,611.5C 1586.97,611.573 1585.97,610.906 1585.5,609.5 Z"/></g>
<g><path style="opacity:0.502" fill="#99b4d8" d="M 1763.5,612.5 C 1776.32,613.495 1789.32,613.829 1802.5,613.5C 1789.33,614.825 1775.99,614.825 1762.5,613.5C 1762.62,612.893 1762.96,612.56 1763.5,612.5 Z"/></g>
<g><path style="opacity:0.502" fill="#95b0d6" d="M 2125.5,611.5 C 2126.27,612.172 2126.93,613.005 2127.5,614C 2064.33,614.832 2001.33,614.665 1938.5,613.5C 2001.18,614.163 2063.51,613.496 2125.5,611.5 Z"/></g>
</svg>
