<?xml version="1.0" encoding="utf-8"?>
<svg width="800px" height="800px" viewBox="0 0 24 24" fill="none" xmlns="http://www.w3.org/2000/svg">
  <path d="M 20.5 7.278 L 12 12 M 12 12 L 3.5 7.278 M 12 12 L 12 21.5 M 18.31 18.072 L 12.777 21.568 C 12.493 21.726 12.352 21.805 12.202 21.836 C 12.069 21.863 11.932 21.863 11.799 21.836 C 11.648 21.805 11.507 21.726 11.223 21.568 L 3.823 17.457 C 3.523 17.291 3.374 17.208 3.265 17.089 C 3.168 16.985 3.095 16.861 3.05 16.725 C 3 16.573 3 16.401 3 16.059 L 3 7.942 C 3 7.599 3 7.428 3.05 7.275 C 3.095 7.14 3.168 7.016 3.265 6.911 C 3.374 6.792 3.523 6.709 3.823 6.543 L 11.223 2.432 C 11.507 2.274 11.648 2.195 11.799 2.165 C 11.932 2.137 12.069 2.137 12.202 2.165 C 12.352 2.195 12.493 2.274 12.777 2.432 L 20.177 6.543 C 20.477 6.709 20.626 6.792 20.735 6.911 C 20.832 7.016 20.905 7.14 20.95 7.275 C 21 7.428 21 7.599 21 7.942 L 21 13 M 7.5 4.5 L 16.5 9.5" stroke="#000000" stroke-width="2" stroke-linecap="round" stroke-linejoin="round"/>
</svg>