<?xml version="1.0" encoding="UTF-8"?>
<!-- Generator: visioncortex VTracer 0.6.3 -->
<svg version="1.1" xmlns="http://www.w3.org/2000/svg" width="100" height="100">
<path d="M0 0 C10.07 7.25 17.73 16.79 20.31 29.25 C21.71 45.91 19.19 58.16 8.64 71.34 C2.22 78.48 -8.1 84.62 -17.8 85.43 C-34.87 85.89 -46.79 83.45 -59.81 71.75 C-70.07 61.14 -72.17 48.37 -71.96 34.26 C-71.51 21.95 -64.87 11.59 -56.17 3.18 C-39.8 -9.52 -17.58 -10.87 0 0 Z M-59.3 14.18 C-66.36 24.73 -67.96 35.85 -66.69 48.25 C-64.81 55.47 -61.3 61.45 -56.69 67.25 C-52.31 66.58 -48.46 65.02 -44.44 63.25 C-43.8 62.98 -43.16 62.7 -42.51 62.42 C-39.37 61.2 -39.37 61.2 -36.69 59.25 C-36.14 52.97 -37.09 48.51 -40.69 43.25 C-41.35 42.92 -42.01 42.59 -42.69 42.25 C-43.77 36.95 -43.84 31.59 -43.94 26.19 C-43.96 25.52 -43.98 24.84 -44 24.15 C-44.04 19.03 -43.01 15.71 -40.69 11.25 C-35.22 6.05 -30.35 5.85 -23.06 5.9 C-17.18 6.51 -12.83 8.79 -8.96 13.23 C-7 17.87 -7.33 22.34 -7.44 27.31 C-7.44 28.31 -7.45 29.3 -7.45 30.32 C-7.55 38.99 -7.55 38.99 -8.69 42.25 C-9.68 42.74 -9.68 42.74 -10.69 43.25 C-14.3 48.54 -15.14 52.95 -14.69 59.25 C-11.37 60.94 -8.03 62.6 -4.69 64.25 C-4 64.59 -3.31 64.93 -2.61 65.29 C0.72 66.84 0.72 66.84 4.32 67.11 C7.12 65.9 7.87 64.31 9.38 61.69 C9.86 60.86 10.35 60.03 10.85 59.18 C14.15 52.56 15.88 46.94 15.81 39.5 C15.8 38.32 15.8 38.32 15.8 37.12 C15.43 25.26 10.04 15.62 1.51 7.54 C-8.67 -0.78 -19.75 -3.15 -32.58 -2.04 C-43.14 -0.58 -52.65 6.06 -59.3 14.18 Z M-36.69 13.25 C-40.08 18.4 -40.35 22.7 -39.23 28.7 C-38.75 30.89 -38.24 33.07 -37.69 35.25 C-38.35 35.25 -39.01 35.25 -39.69 35.25 C-38.82 37.7 -37.9 39.93 -36.44 42.09 C-31.92 48.96 -32.17 55.21 -32.69 63.25 C-33.7 63.65 -33.7 63.65 -34.73 64.05 C-38.17 65.45 -41.59 66.91 -45 68.38 C-45.65 68.65 -46.29 68.93 -46.96 69.21 C-48.53 69.89 -50.11 70.57 -51.69 71.25 C-44.13 77.71 -34.7 81.53 -24.69 81.25 C-15.03 80.34 -7.15 77.46 0.31 71.25 C-2.29 70.1 -4.9 68.96 -7.5 67.81 C-8.24 67.49 -8.98 67.16 -9.74 66.83 C-10.45 66.51 -11.16 66.2 -11.89 65.88 C-12.55 65.59 -13.2 65.3 -13.88 65.01 C-15.45 64.35 -17.07 63.79 -18.69 63.25 C-19.28 53.99 -18.9 47.96 -13.69 40.25 C-12.98 38.6 -12.29 36.94 -11.69 35.25 C-12.35 35.25 -13.01 35.25 -13.69 35.25 C-13.36 34.3 -13.03 33.35 -12.69 32.38 C-11.19 27.14 -10.62 21.18 -12.51 16 C-13.65 13.89 -13.65 13.89 -16.81 13.5 C-17.76 13.42 -18.71 13.34 -19.69 13.25 C-20.02 12.26 -20.35 11.27 -20.69 10.25 C-29.33 9.51 -29.33 9.51 -36.69 13.25 Z " fill="#2D348B" transform="translate(75.6875,10.75)"/>
</svg>
